<?xml version="1.0" encoding="UTF-8"?>
<svg width="52px" height="43px" viewBox="0 0 52 43" version="1.1" xmlns="http://www.w3.org/2000/svg" xmlns:xlink="http://www.w3.org/1999/xlink">
    <!-- Generator: Sketch 47.1 (45422) - http://www.bohemiancoding.com/sketch -->
    <title>uEA26-muted</title>
    <desc>Created with Sketch.</desc>
    <defs></defs>
    <g id="Page-1" stroke="none" stroke-width="1" fill="none" fill-rule="evenodd">
        <g id="uEA26-muted" fill-rule="nonzero" fill="#000000">
            <path d="M26.3,0.7 L9.4,11.9 C9.3,12 9.1,12.1 9,12.1 L1,12.1 C0.4,12.1 0,12.5 0,13 L0,29.6 C0,30.1 0.4,30.5 0.9,30.5 L8.9,30.5 C9.1,30.5 9.2,30.5 9.4,30.6 L26.3,42 C26.9,42.4 27.7,41.9 27.7,41.2 L27.7,1.5 C27.7,0.7 26.9,0.3 26.3,0.7 Z" id="Combined-Shape"></path>
            <polygon id="Path-2-Copy" points="48.5962067 12.5754424 33.288785 27.6597429 36.0963716 30.5088582 51.4037933 15.4245576"></polygon>
            <polygon id="Path-2-Copy-2" points="50.922276 28.0938489 35.4142136 12.5857864 32.5857864 15.4142136 48.0938489 30.922276"></polygon>
        </g>
    </g>
</svg>