<?xml version="1.0" encoding="utf-8"?>
<!-- Generator: Adobe Illustrator 21.0.2, SVG Export Plug-In . SVG Version: 6.00 Build 0)  -->
<svg version="1.1" id="Layer_1" xmlns="http://www.w3.org/2000/svg" xmlns:xlink="http://www.w3.org/1999/xlink" x="0px" y="0px"
	 viewBox="0 0 64 64" style="enable-background:new 0 0 64 64;" xml:space="preserve">
<path d="M52.5,38c3.9-0.6,5.4-0.7,5.4-0.7c1.9,0,3.4-1.6,3.4-3.5v-2.8c0-1.9-1.5-3.5-3.4-3.7c0,0-2.9-0.2-5.3-0.8
	c-0.2,0-0.2,0-0.2,0c-0.2-0.1-0.5-0.6-0.7-1.1s-0.7-2.5-0.5-3.2c0,0,0,0,0.5-0.7c2.3-3.2,3.3-4.2,3.3-4.2c1.3-1.3,1.3-3.5-0.1-4.8
	l-2.1-2c-1.3-1.3-3.5-1.3-4.9-0.1c0,0-1.2,1.1-4.5,2.9c-0.7,0.4-0.7,0.4-0.7,0.4c-0.9,0-2.1-0.1-2.6-0.3c-0.5-0.2-2.1-0.9-2.2-1
	c0,0,0,0,0-0.2c-0.7-3.9-0.7-6.2-0.7-6.2c0-1.9-1.6-3.4-3.4-3.4h-3c-1.9,0-3.4,1.5-3.4,3.4c0,0,0,2.6-1.1,6.1
	c-0.1,0.2-0.1,0.2-0.1,0.2c-0.1,0.2-0.5,0.5-0.9,0.7c-0.4,0.1-2.2,0.5-3.2,0.5c0,0,0,0-0.8-0.5c-3.2-1.8-4.5-2.9-4.5-2.9
	C15.3,9,13.1,9,11.8,10.3l-2.1,2c-1.3,1.3-1.3,3.5-0.1,4.8c0,0,1,1,3.3,4.2c0.4,0.6,0.4,0.6,0.4,0.6c0.2,0.6,0.1,1.6-0.2,2.2
	c-0.3,0.6-1.1,2.3-1.3,2.4c0,0,0,0-0.3,0.1c-3.6,1-5.3,1-5.3,1c-1.9,0-3.4,1.6-3.4,3.5v2.8c0,1.9,1.5,3.4,3.4,3.5c0,0,1.4,0,5.3,0.7
	c0.2,0,0.2,0,0.2,0c0.2,0.1,0.5,0.6,0.7,1.2c0.2,0.6,0.8,2.6,0.6,3.4c0,0,0,0-0.5,0.7c-2.3,3.2-3.3,4.2-3.3,4.2
	c-1.3,1.3-1.3,3.5,0.1,4.8l2.1,2c1.3,1.3,3.5,1.3,4.9,0.1c0,0,1.2-1.1,4.5-2.9c0.8-0.5,0.8-0.5,0.8-0.5c1,0,2.1,0.1,2.5,0.3
	c0.4,0.2,1.6,0.8,1.7,1.1c0,0,0,0,0.1,0.3c1,3.5,1.1,5.1,1.1,5.1c0,1.9,1.6,3.4,3.5,3.4h3c1.9,0,3.4-1.5,3.5-3.4c0,0,0-1.4,0.7-5.2
	c0-0.2,0-0.2,0-0.2c0.1-0.2,0.6-0.5,1.1-0.7c0.5-0.2,2.7-0.7,3.7-0.7c0,0,0,0,0.8,0.4c3.2,1.8,4.5,2.9,4.5,2.9
	c1.4,1.3,3.5,1.3,4.9-0.1l2.1-2c1.3-1.3,1.3-3.5,0.1-4.8c0,0-1-1-3.3-4.2C51,42.6,51,42.6,51,42.6c-0.1-0.7,0-1.8,0.2-2.3
	c0.3-0.6,0.9-2.1,1.1-2.2C52.3,38.1,52.3,38.1,52.5,38z M32.1,44.6c-6.8,0-12.3-5.4-12.3-12.1s5.5-12.1,12.3-12.1
	c6.8,0,12.3,5.4,12.3,12.1S38.9,44.6,32.1,44.6z"/>
</svg>
